<svg width="470" height="158" viewBox="0 0 470 158" fill="none" xmlns="http://www.w3.org/2000/svg">
<path d="M21.91 82L0.66 33.125H14.94L32.96 76.05H24.715L43.075 33.125H56.42L35.17 82H21.91Z" fill="url(#paint0_linear_678_355)"/>
<path d="M125.069 67.125C125.069 70.185 124.191 72.905 122.434 75.285C120.734 77.665 118.241 79.535 114.954 80.895C111.724 82.255 107.729 82.935 102.969 82.935C99.0595 82.935 95.2061 82.4533 91.4095 81.49C87.6695 80.5267 84.6378 79.2517 82.3145 77.665L86.9895 67.72C89.1995 69.1933 91.7778 70.355 94.7245 71.205C97.6711 72.055 100.674 72.48 103.734 72.48C106.738 72.48 108.834 72.055 110.024 71.205C111.214 70.355 111.809 69.3633 111.809 68.23C111.809 67.0967 111.271 66.19 110.194 65.51C109.174 64.83 107.814 64.2917 106.114 63.895C104.471 63.4417 102.629 63.0167 100.589 62.62C98.6061 62.2233 96.5945 61.7133 94.5545 61.09C92.5711 60.4667 90.7295 59.645 89.0295 58.625C87.3861 57.5483 86.0261 56.16 84.9495 54.46C83.9295 52.7033 83.4195 50.5217 83.4195 47.915C83.4195 44.855 84.2978 42.1633 86.0545 39.84C87.8678 37.46 90.4178 35.59 93.7045 34.23C96.9911 32.87 100.901 32.19 105.434 32.19C108.494 32.19 111.611 32.53 114.784 33.21C117.958 33.89 120.734 34.9667 123.114 36.44L118.779 46.385C116.569 45.025 114.274 44.0617 111.894 43.495C109.571 42.9283 107.248 42.645 104.924 42.645C102.091 42.645 100.023 43.07 98.7195 43.92C97.4161 44.77 96.7645 45.8467 96.7645 47.15C96.7645 48.2833 97.2745 49.19 98.2945 49.87C99.3145 50.55 100.646 51.1167 102.289 51.57C103.989 51.9667 105.859 52.3633 107.899 52.76C109.939 53.1567 111.951 53.6667 113.934 54.29C115.918 54.8567 117.759 55.65 119.459 56.67C121.159 57.69 122.519 59.05 123.539 60.75C124.559 62.3933 125.069 64.5183 125.069 67.125ZM157.266 82.935C152.053 82.935 147.378 81.8583 143.241 79.705C139.161 77.495 135.931 74.4917 133.551 70.695C131.171 66.8417 129.981 62.4783 129.981 57.605C129.981 52.675 131.171 48.3117 133.551 44.515C135.931 40.6617 139.161 37.6583 143.241 35.505C147.378 33.295 152.053 32.19 157.266 32.19C161.856 32.19 165.879 32.8983 169.336 34.315C172.849 35.675 175.853 37.9417 178.346 41.115L169.676 49.02C168.033 47.0367 166.219 45.5633 164.236 44.6C162.253 43.6367 160.099 43.155 157.776 43.155C154.999 43.155 152.534 43.7783 150.381 45.025C148.228 46.215 146.528 47.8867 145.281 50.04C144.091 52.1933 143.496 54.715 143.496 57.605C143.496 60.4383 144.091 62.9317 145.281 65.085C146.528 67.2383 148.228 68.9383 150.381 70.185C152.534 71.375 154.999 71.97 157.776 71.97C160.099 71.97 162.253 71.4883 164.236 70.525C166.219 69.5617 168.033 68.0883 169.676 66.105L178.346 74.01C175.853 77.1267 172.849 79.3933 169.336 80.81C165.879 82.2267 161.856 82.935 157.266 82.935ZM186.759 82V33.125H200.189V51.825H220.079V33.125H233.509V82H220.079V62.62H200.189V82H186.759ZM270.493 82.935C265.223 82.935 260.519 81.8583 256.383 79.705C252.246 77.495 248.988 74.4633 246.608 70.61C244.228 66.7567 243.038 62.3933 243.038 57.52C243.038 52.6467 244.228 48.3117 246.608 44.515C248.988 40.7183 252.246 37.715 256.383 35.505C260.519 33.295 265.223 32.19 270.493 32.19C275.763 32.19 280.466 33.295 284.603 35.505C288.739 37.715 291.998 40.7183 294.378 44.515C296.758 48.3117 297.948 52.6467 297.948 57.52C297.948 62.3933 296.758 66.7567 294.378 70.61C291.998 74.4633 288.739 77.495 284.603 79.705C280.466 81.8583 275.763 82.935 270.493 82.935ZM270.493 71.97C273.213 71.97 275.593 71.375 277.633 70.185C279.729 68.9383 281.373 67.21 282.562 65C283.753 62.79 284.348 60.325 284.348 57.605C284.348 54.7717 283.753 52.2783 282.562 50.125C281.373 47.9717 279.729 46.2717 277.633 45.025C275.593 43.7783 273.213 43.155 270.493 43.155C267.829 43.155 265.449 43.7783 263.353 45.025C261.256 46.2717 259.584 47.9717 258.338 50.125C257.148 52.2783 256.553 54.7433 256.553 57.52C256.553 60.2967 257.148 62.79 258.338 65C259.584 67.21 261.256 68.9383 263.353 70.185C265.449 71.375 267.829 71.97 270.493 71.97ZM307.452 82V33.125H320.882V71.545H344.767V82H307.452ZM345.049 82L366.979 33.125H380.239L402.254 82H388.994L371.399 39.585H375.904L358.054 82H345.049ZM357.034 72.31L360.519 62.62H384.659L388.144 72.31H357.034ZM408.058 82V33.125H430.328C434.861 33.125 438.743 33.8617 441.973 35.335C445.259 36.7517 447.809 38.7917 449.623 41.455C451.436 44.1183 452.343 47.3483 452.343 51.145C452.343 54.8283 451.436 58.0017 449.623 60.665C447.809 63.3283 445.259 65.3683 441.973 66.785C438.743 68.2017 434.861 68.91 430.328 68.91H415.453L421.488 63.215V82H408.058ZM438.828 82L426.503 64.235H440.783L453.278 82H438.828ZM421.488 64.745L416.558 58.71H429.393C432.509 58.71 434.861 58.0583 436.448 56.755C438.034 55.395 438.828 53.525 438.828 51.145C438.828 48.7083 438.034 46.8383 436.448 45.535C434.861 44.2317 432.509 43.58 429.393 43.58H416.558L421.488 37.545V64.745Z" fill="#FF4A11"/>
<path d="M319.2 110L314.16 98.64H316.24L320.78 109.04H319.6L324.22 98.64H326.18L321.12 110H319.2ZM325.582 110L330.782 98.64H332.702L337.922 110H335.962L331.422 99.66H332.082L327.482 110H325.582ZM327.962 107.3L328.482 105.76H334.722L335.242 107.3H327.962ZM347.786 106.76C347.786 107.453 347.6 108.053 347.226 108.56C346.866 109.067 346.34 109.46 345.646 109.74C344.966 110.02 344.14 110.16 343.166 110.16C342.286 110.16 341.426 110.04 340.586 109.8C339.76 109.547 339.113 109.213 338.646 108.8L339.406 107.28C339.86 107.64 340.426 107.94 341.106 108.18C341.786 108.407 342.5 108.52 343.246 108.52C344.206 108.52 344.88 108.367 345.266 108.06C345.653 107.74 345.846 107.367 345.846 106.94C345.846 106.567 345.72 106.273 345.466 106.06C345.226 105.833 344.9 105.66 344.486 105.54C344.073 105.407 343.62 105.287 343.126 105.18C342.646 105.073 342.16 104.953 341.666 104.82C341.186 104.687 340.74 104.507 340.326 104.28C339.926 104.053 339.6 103.747 339.346 103.36C339.093 102.96 338.966 102.46 338.966 101.86C338.966 101.18 339.153 100.587 339.526 100.08C339.9 99.5733 340.426 99.18 341.106 98.9C341.786 98.62 342.6 98.48 343.546 98.48C344.24 98.48 344.926 98.56 345.606 98.72C346.286 98.8667 346.873 99.1133 347.366 99.46L346.666 101.02C346.186 100.687 345.666 100.453 345.106 100.32C344.56 100.187 344.02 100.12 343.486 100.12C342.58 100.12 341.92 100.28 341.506 100.6C341.106 100.907 340.906 101.287 340.906 101.74C340.906 102.113 341.033 102.413 341.286 102.64C341.54 102.853 341.866 103.027 342.266 103.16C342.68 103.28 343.133 103.393 343.626 103.5C344.12 103.607 344.606 103.727 345.086 103.86C345.566 103.993 346.013 104.173 346.426 104.4C346.84 104.627 347.166 104.933 347.406 105.32C347.66 105.693 347.786 106.173 347.786 106.76ZM352.296 110V100.24H348.416V98.64H358.116V100.24H354.236V110H352.296ZM357.476 110L362.676 98.64H364.596L369.816 110H367.856L363.316 99.66H363.976L359.376 110H357.476ZM359.856 107.3L360.376 105.76H366.616L367.136 107.3H359.856ZM374.259 110L369.219 98.64H371.299L375.839 109.04H374.659L379.279 98.64H381.239L376.179 110H374.259ZM396.653 106.76C396.653 107.453 396.467 108.053 396.093 108.56C395.733 109.067 395.207 109.46 394.513 109.74C393.833 110.02 393.007 110.16 392.033 110.16C391.153 110.16 390.293 110.04 389.453 109.8C388.627 109.547 387.98 109.213 387.513 108.8L388.273 107.28C388.727 107.64 389.293 107.94 389.973 108.18C390.653 108.407 391.367 108.52 392.113 108.52C393.073 108.52 393.747 108.367 394.133 108.06C394.52 107.74 394.713 107.367 394.713 106.94C394.713 106.567 394.587 106.273 394.333 106.06C394.093 105.833 393.767 105.66 393.353 105.54C392.94 105.407 392.487 105.287 391.993 105.18C391.513 105.073 391.027 104.953 390.533 104.82C390.053 104.687 389.607 104.507 389.193 104.28C388.793 104.053 388.467 103.747 388.213 103.36C387.96 102.96 387.833 102.46 387.833 101.86C387.833 101.18 388.02 100.587 388.393 100.08C388.767 99.5733 389.293 99.18 389.973 98.9C390.653 98.62 391.467 98.48 392.413 98.48C393.107 98.48 393.793 98.56 394.473 98.72C395.153 98.8667 395.74 99.1133 396.233 99.46L395.533 101.02C395.053 100.687 394.533 100.453 393.973 100.32C393.427 100.187 392.887 100.12 392.353 100.12C391.447 100.12 390.787 100.28 390.373 100.6C389.973 100.907 389.773 101.287 389.773 101.74C389.773 102.113 389.9 102.413 390.153 102.64C390.407 102.853 390.733 103.027 391.133 103.16C391.547 103.28 392 103.393 392.493 103.5C392.987 103.607 393.473 103.727 393.953 103.86C394.433 103.993 394.88 104.173 395.293 104.4C395.707 104.627 396.033 104.933 396.273 105.32C396.527 105.693 396.653 106.173 396.653 106.76ZM404.438 110.16C403.265 110.16 402.212 109.907 401.278 109.4C400.345 108.893 399.612 108.2 399.078 107.32C398.545 106.427 398.278 105.427 398.278 104.32C398.278 103.187 398.545 102.187 399.078 101.32C399.612 100.44 400.345 99.7467 401.278 99.24C402.212 98.7333 403.265 98.48 404.438 98.48C405.412 98.48 406.272 98.6267 407.018 98.92C407.765 99.2133 408.398 99.66 408.918 100.26L407.678 101.52C407.252 101.053 406.772 100.713 406.238 100.5C405.705 100.273 405.125 100.16 404.498 100.16C403.685 100.16 402.952 100.34 402.298 100.7C401.658 101.047 401.152 101.533 400.778 102.16C400.418 102.787 400.238 103.507 400.238 104.32C400.238 105.107 400.418 105.82 400.778 106.46C401.152 107.087 401.658 107.58 402.298 107.94C402.952 108.3 403.685 108.48 404.498 108.48C405.125 108.48 405.705 108.367 406.238 108.14C406.772 107.913 407.252 107.567 407.678 107.1L408.918 108.36C408.398 108.96 407.758 109.413 406.998 109.72C406.252 110.013 405.398 110.16 404.438 110.16ZM416.353 110.16C415.18 110.16 414.126 109.907 413.193 109.4C412.26 108.893 411.52 108.2 410.973 107.32C410.44 106.427 410.173 105.42 410.173 104.3C410.173 103.193 410.44 102.2 410.973 101.32C411.52 100.44 412.26 99.7467 413.193 99.24C414.126 98.7333 415.18 98.48 416.353 98.48C417.54 98.48 418.593 98.7333 419.513 99.24C420.446 99.7467 421.18 100.44 421.713 101.32C422.26 102.2 422.533 103.193 422.533 104.3C422.533 105.42 422.26 106.427 421.713 107.32C421.18 108.2 420.446 108.893 419.513 109.4C418.593 109.907 417.54 110.16 416.353 110.16ZM416.353 108.48C417.166 108.48 417.886 108.3 418.513 107.94C419.153 107.58 419.653 107.087 420.013 106.46C420.386 105.82 420.573 105.107 420.573 104.32C420.573 103.507 420.386 102.793 420.013 102.18C419.653 101.553 419.153 101.06 418.513 100.7C417.886 100.34 417.166 100.16 416.353 100.16C415.553 100.16 414.833 100.34 414.193 100.7C413.553 101.047 413.046 101.533 412.673 102.16C412.313 102.787 412.133 103.507 412.133 104.32C412.133 105.107 412.313 105.82 412.673 106.46C413.046 107.087 413.553 107.58 414.193 107.94C414.833 108.3 415.553 108.48 416.353 108.48ZM425.354 110V98.64H427.294V108.38H433.394V110H425.354ZM433.531 110L438.731 98.64H440.651L445.871 110H443.911L439.371 99.66H440.031L435.431 110H433.531ZM435.911 107.3L436.431 105.76H442.671L443.191 107.3H435.911ZM447.795 110V98.64H452.435C453.435 98.64 454.295 98.8 455.015 99.12C455.735 99.4267 456.295 99.88 456.695 100.48C457.095 101.067 457.295 101.787 457.295 102.64C457.295 103.467 457.095 104.18 456.695 104.78C456.295 105.38 455.735 105.84 455.015 106.16C454.295 106.467 453.435 106.62 452.435 106.62H448.875L449.735 105.74V110H447.795ZM455.395 110L452.435 105.88H454.535L457.495 110H455.395ZM449.735 105.96L448.995 105.04H452.315C453.302 105.04 454.049 104.833 454.555 104.42C455.075 104.007 455.335 103.413 455.335 102.64C455.335 101.867 455.075 101.273 454.555 100.86C454.049 100.447 453.302 100.24 452.315 100.24H448.995L449.735 99.32V105.96Z" fill="#1E1E1E"/>
<defs>
<linearGradient id="paint0_linear_678_355" x1="1" y1="33.5" x2="470" y2="33.5" gradientUnits="userSpaceOnUse">
<stop stop-color="#18269C"/>
<stop offset="1" stop-color="#263AE2"/>
</linearGradient>
</defs>
</svg>
