<svg width="207" height="80" viewBox="0 0 457 118" fill="none" xmlns="http://www.w3.org/2000/svg">
<path d="M21.91 82L0.66 33.125H14.94L32.96 76.05H24.715L43.075 33.125H56.42L35.17 82H21.91Z" fill="url(#paint0_linear_678_355)"/>
<path d="M125.069 67.125C125.069 70.185 124.191 72.905 122.434 75.285C120.734 77.665 118.241 79.535 114.954 80.895C111.724 82.255 107.729 82.935 102.969 82.935C99.0595 82.935 95.2061 82.4533 91.4095 81.49C87.6695 80.5267 84.6378 79.2517 82.3145 77.665L86.9895 67.72C89.1995 69.1933 91.7778 70.355 94.7245 71.205C97.6711 72.055 100.674 72.48 103.734 72.48C106.738 72.48 108.834 72.055 110.024 71.205C111.214 70.355 111.809 69.3633 111.809 68.23C111.809 67.0967 111.271 66.19 110.194 65.51C109.174 64.83 107.814 64.2917 106.114 63.895C104.471 63.4417 102.629 63.0167 100.589 62.62C98.6061 62.2233 96.5945 61.7133 94.5545 61.09C92.5711 60.4667 90.7295 59.645 89.0295 58.625C87.3861 57.5483 86.0261 56.16 84.9495 54.46C83.9295 52.7033 83.4195 50.5217 83.4195 47.915C83.4195 44.855 84.2978 42.1633 86.0545 39.84C87.8678 37.46 90.4178 35.59 93.7045 34.23C96.9911 32.87 100.901 32.19 105.434 32.19C108.494 32.19 111.611 32.53 114.784 33.21C117.958 33.89 120.734 34.9667 123.114 36.44L118.779 46.385C116.569 45.025 114.274 44.0617 111.894 43.495C109.571 42.9283 107.248 42.645 104.924 42.645C102.091 42.645 100.023 43.07 98.7195 43.92C97.4161 44.77 96.7645 45.8467 96.7645 47.15C96.7645 48.2833 97.2745 49.19 98.2945 49.87C99.3145 50.55 100.646 51.1167 102.289 51.57C103.989 51.9667 105.859 52.3633 107.899 52.76C109.939 53.1567 111.951 53.6667 113.934 54.29C115.918 54.8567 117.759 55.65 119.459 56.67C121.159 57.69 122.519 59.05 123.539 60.75C124.559 62.3933 125.069 64.5183 125.069 67.125ZM157.266 82.935C152.053 82.935 147.378 81.8583 143.241 79.705C139.161 77.495 135.931 74.4917 133.551 70.695C131.171 66.8417 129.981 62.4783 129.981 57.605C129.981 52.675 131.171 48.3117 133.551 44.515C135.931 40.6617 139.161 37.6583 143.241 35.505C147.378 33.295 152.053 32.19 157.266 32.19C161.856 32.19 165.879 32.8983 169.336 34.315C172.849 35.675 175.853 37.9417 178.346 41.115L169.676 49.02C168.033 47.0367 166.219 45.5633 164.236 44.6C162.253 43.6367 160.099 43.155 157.776 43.155C154.999 43.155 152.534 43.7783 150.381 45.025C148.228 46.215 146.528 47.8867 145.281 50.04C144.091 52.1933 143.496 54.715 143.496 57.605C143.496 60.4383 144.091 62.9317 145.281 65.085C146.528 67.2383 148.228 68.9383 150.381 70.185C152.534 71.375 154.999 71.97 157.776 71.97C160.099 71.97 162.253 71.4883 164.236 70.525C166.219 69.5617 168.033 68.0883 169.676 66.105L178.346 74.01C175.853 77.1267 172.849 79.3933 169.336 80.81C165.879 82.2267 161.856 82.935 157.266 82.935ZM186.759 82V33.125H200.189V51.825H220.079V33.125H233.509V82H220.079V62.62H200.189V82H186.759ZM270.493 82.935C265.223 82.935 260.519 81.8583 256.383 79.705C252.246 77.495 248.988 74.4633 246.608 70.61C244.228 66.7567 243.038 62.3933 243.038 57.52C243.038 52.6467 244.228 48.3117 246.608 44.515C248.988 40.7183 252.246 37.715 256.383 35.505C260.519 33.295 265.223 32.19 270.493 32.19C275.763 32.19 280.466 33.295 284.603 35.505C288.739 37.715 291.998 40.7183 294.378 44.515C296.758 48.3117 297.948 52.6467 297.948 57.52C297.948 62.3933 296.758 66.7567 294.378 70.61C291.998 74.4633 288.739 77.495 284.603 79.705C280.466 81.8583 275.763 82.935 270.493 82.935ZM270.493 71.97C273.213 71.97 275.593 71.375 277.633 70.185C279.729 68.9383 281.373 67.21 282.562 65C283.753 62.79 284.348 60.325 284.348 57.605C284.348 54.7717 283.753 52.2783 282.562 50.125C281.373 47.9717 279.729 46.2717 277.633 45.025C275.593 43.7783 273.213 43.155 270.493 43.155C267.829 43.155 265.449 43.7783 263.353 45.025C261.256 46.2717 259.584 47.9717 258.338 50.125C257.148 52.2783 256.553 54.7433 256.553 57.52C256.553 60.2967 257.148 62.79 258.338 65C259.584 67.21 261.256 68.9383 263.353 70.185C265.449 71.375 267.829 71.97 270.493 71.97ZM307.452 82V33.125H320.882V71.545H344.767V82H307.452ZM345.049 82L366.979 33.125H380.239L402.254 82H388.994L371.399 39.585H375.904L358.054 82H345.049ZM357.034 72.31L360.519 62.62H384.659L388.144 72.31H357.034ZM408.058 82V33.125H430.328C434.861 33.125 438.743 33.8617 441.973 35.335C445.259 36.7517 447.809 38.7917 449.623 41.455C451.436 44.1183 452.343 47.3483 452.343 51.145C452.343 54.8283 451.436 58.0017 449.623 60.665C447.809 63.3283 445.259 65.3683 441.973 66.785C438.743 68.2017 434.861 68.91 430.328 68.91H415.453L421.488 63.215V82H408.058ZM438.828 82L426.503 64.235H440.783L453.278 82H438.828ZM421.488 64.745L416.558 58.71H429.393C432.509 58.71 434.861 58.0583 436.448 56.755C438.034 55.395 438.828 53.525 438.828 51.145C438.828 48.7083 438.034 46.8383 436.448 45.535C434.861 44.2317 432.509 43.58 429.393 43.58H416.558L421.488 37.545V64.745Z" fill="#FF4A11"/>
<defs>
<linearGradient id="paint0_linear_678_355" x1="1" y1="59" x2="457" y2="59" gradientUnits="userSpaceOnUse">
<stop stop-color="#18269C"/>
<stop offset="1" stop-color="#263AE2"/>
</linearGradient>
</defs>
</svg>
