<?xml version="1.0" standalone="no"?>
<!DOCTYPE svg PUBLIC "-//W3C//DTD SVG 20010904//EN"
 "http://www.w3.org/TR/2001/REC-SVG-20010904/DTD/svg10.dtd">
<svg version="1.0" xmlns="http://www.w3.org/2000/svg"
 width="435.000000pt" height="156.000000pt" viewBox="0 0 435.000000 156.000000"
 preserveAspectRatio="xMidYMid meet">

<g transform="translate(0.000000,156.000000) scale(0.100000,-0.100000)"
fill="#000000" stroke="none">
<path d="M962 823 l3 -248 43 -3 42 -3 0 250 0 251 -45 0 -45 0 2 -247z"/>
<path d="M1112 823 l3 -248 43 -3 42 -3 0 250 0 251 -45 0 -45 0 2 -247z"/>
<path d="M1222 1028 l3 -43 83 -3 82 -3 0 46 0 45 -86 0 -85 0 3 -42z"/>
<path d="M1452 823 l3 -248 43 -3 42 -3 0 250 0 251 -45 0 -45 0 2 -247z"/>
<path d="M1562 1028 l3 -43 83 -3 82 -3 0 46 0 45 -86 0 -85 0 3 -42z"/>
<path d="M1834 1018 c13 -29 27 -53 32 -55 10 -3 54 78 54 97 0 23 -16 7 -33
-33 l-18 -42 -19 43 c-10 23 -23 42 -29 42 -5 0 0 -23 13 -52z"/>
<path d="M1942 1018 c-22 -52 -21 -78 2 -45 15 20 62 23 69 4 3 -8 23 -14 48
-15 73 -3 94 37 33 63 -39 16 -38 41 2 31 14 -4 24 -2 24 4 0 19 -59 11 -69
-9 -12 -21 -1 -34 37 -45 34 -11 26 -23 -17 -28 -39 -3 -40 -2 -62 44 -12 27
-27 48 -33 48 -6 0 -21 -24 -34 -52z m51 2 c4 -15 0 -20 -14 -20 -21 0 -22 1
-13 24 8 22 21 20 27 -4z"/>
<path d="M2148 1063 c19 -4 22 -11 22 -54 0 -27 5 -49 10 -49 6 0 10 22 10 49
0 43 3 50 23 54 12 2 -3 4 -33 4 -30 0 -45 -2 -32 -4z"/>
<path d="M2246 1018 c-24 -54 -25 -77 -2 -45 7 9 23 17 36 17 13 0 29 -8 36
-17 23 -32 22 -9 -2 45 -12 28 -28 52 -34 52 -6 0 -22 -24 -34 -52z m48 6 c9
-23 8 -24 -14 -24 -11 0 -20 2 -20 4 0 12 13 36 20 36 4 0 11 -7 14 -16z"/>
<path d="M2340 1061 c0 -21 43 -102 52 -99 15 5 59 108 47 108 -6 0 -19 -19
-29 -42 l-19 -43 -18 42 c-16 39 -33 56 -33 34z"/>
<path d="M2500 1015 c0 -30 5 -55 10 -55 6 0 10 25 10 55 0 30 -4 55 -10 55
-5 0 -10 -25 -10 -55z"/>
<path d="M2550 1015 c0 -30 5 -55 10 -55 6 0 10 17 10 38 l1 37 33 -37 c18
-21 36 -38 40 -38 3 0 6 25 6 55 0 30 -4 55 -10 55 -5 0 -10 -17 -10 -37 l0
-38 -31 38 c-17 20 -35 37 -40 37 -5 0 -9 -25 -9 -55z"/>
<path d="M2687 1052 c-35 -38 -5 -95 46 -90 17 2 32 8 34 14 2 7 -8 9 -28 6
-45 -7 -65 30 -33 62 10 11 24 14 41 10 18 -5 24 -3 19 5 -11 17 -61 13 -79
-7z"/>
<path d="M2790 1034 c0 -50 15 -74 48 -74 39 0 52 17 52 67 0 56 -18 56 -22 1
-3 -38 -6 -43 -28 -43 -22 0 -25 5 -28 43 -4 51 -22 57 -22 6z"/>
<path d="M2920 1015 l0 -56 43 3 42 3 0 50 0 50 -42 3 -43 3 0 -56z m65 25 c0
-8 -10 -16 -22 -18 -18 -3 -23 2 -23 18 0 16 5 21 23 18 12 -2 22 -10 22 -18z
m6 -45 c0 -5 -12 -11 -26 -13 -18 -2 -25 1 -25 13 0 12 7 15 25 13 14 -2 26
-7 26 -13z"/>
<path d="M3046 1018 c-24 -54 -25 -77 -2 -45 7 9 23 17 36 17 13 0 29 -8 36
-17 23 -32 22 -9 -2 45 -12 28 -28 52 -34 52 -6 0 -22 -24 -34 -52z m48 6 c9
-23 8 -24 -14 -24 -11 0 -20 2 -20 4 0 12 13 36 20 36 4 0 11 -7 14 -16z"/>
<path d="M3148 1063 c19 -4 22 -11 22 -54 0 -27 5 -49 10 -49 6 0 10 22 10 49
0 43 3 50 23 54 12 2 -3 4 -33 4 -30 0 -45 -2 -32 -4z"/>
<path d="M3240 1015 l0 -55 40 0 c22 0 40 5 40 10 0 6 -13 10 -30 10 -43 0
-41 30 3 31 l32 1 -30 7 c-17 3 -30 13 -30 21 0 8 13 18 30 21 27 6 26 7 -12
8 l-43 1 0 -55z"/>
<path d="M3356 1040 c17 -28 17 -30 -1 -50 -10 -11 -15 -23 -11 -27 3 -4 14 4
23 17 l16 23 19 -23 c24 -30 35 -19 13 13 -15 24 -15 27 0 51 10 15 13 26 7
26 -6 0 -16 -9 -23 -21 l-11 -21 -14 21 c-23 32 -37 25 -18 -9z"/>
<path d="M3506 1018 c-24 -54 -25 -77 -2 -45 16 21 62 23 70 2 3 -8 10 -15 15
-15 13 0 -33 103 -48 108 -6 2 -22 -20 -35 -50z m48 6 c9 -23 8 -24 -14 -24
-11 0 -20 2 -20 4 0 12 13 36 20 36 4 0 11 -7 14 -16z"/>
<path d="M3610 1015 c0 -30 5 -55 10 -55 6 0 10 17 10 38 l1 37 33 -37 c18
-21 36 -38 40 -38 3 0 6 25 6 55 0 30 -4 55 -10 55 -5 0 -10 -17 -10 -37 l0
-38 -31 38 c-17 20 -35 37 -40 37 -5 0 -9 -25 -9 -55z"/>
<path d="M3740 1015 l0 -55 33 0 c65 0 101 56 59 93 -10 10 -35 17 -55 17
l-37 0 0 -55z m84 25 c5 -5 6 -20 2 -34 -5 -21 -13 -26 -36 -26 -28 0 -30 2
-30 41 0 40 1 41 28 34 15 -3 31 -10 36 -15z"/>
<path d="M510 1052 c0 -6 37 -117 81 -247 l82 -236 31 3 31 3 82 243 82 243
-41 -3 -41 -3 -55 -158 c-30 -87 -57 -155 -61 -152 -3 3 -31 74 -61 158 l-56
152 -37 3 c-20 2 -37 -1 -37 -6z"/>
<path d="M1562 828 l3 -43 83 -3 82 -3 0 46 0 45 -86 0 -85 0 3 -42z"/>
<path d="M1830 815 l0 -55 40 0 c22 0 40 5 40 10 0 6 -13 10 -30 10 -39 0 -41
27 -2 33 l27 4 -27 2 c-21 1 -28 6 -28 20 0 15 8 21 33 24 28 3 26 4 -10 5
l-43 2 0 -55z"/>
<path d="M1930 815 c0 -30 5 -55 10 -55 6 0 10 17 10 38 l1 37 32 -38 c18 -20
35 -37 40 -37 4 0 7 25 7 55 0 30 -4 55 -10 55 -5 0 -10 -17 -10 -37 l-1 -38
-30 38 c-17 20 -35 37 -40 37 -5 0 -9 -25 -9 -55z"/>
<path d="M2058 863 c19 -4 22 -11 22 -54 0 -27 5 -49 10 -49 6 0 10 22 10 49
0 43 3 50 23 54 12 2 -3 4 -33 4 -30 0 -45 -2 -32 -4z"/>
<path d="M2150 816 c0 -31 5 -56 10 -56 6 0 10 7 10 15 0 8 9 15 20 15 11 0
23 -7 26 -15 4 -8 10 -15 15 -15 6 0 6 8 0 18 -7 13 -7 22 0 29 6 6 9 21 7 34
-2 20 -10 24 -45 27 l-43 3 0 -55z m54 38 c27 -10 20 -44 -9 -44 -20 0 -25 5
-25 25 0 26 7 29 34 19z"/>
<path d="M2270 815 l0 -55 40 0 c22 0 40 5 40 10 0 6 -13 10 -30 10 -39 0 -41
27 -2 33 l27 4 -27 2 c-21 1 -28 6 -28 20 0 15 8 21 33 24 28 3 26 4 -10 5
l-43 2 0 -55z"/>
<path d="M2370 815 c0 -30 5 -55 10 -55 6 0 10 6 10 13 0 7 15 17 33 22 23 7
33 17 35 34 4 29 -12 41 -55 41 l-33 0 0 -55z m54 39 c27 -10 20 -44 -9 -44
-20 0 -25 5 -25 25 0 26 7 29 34 19z"/>
<path d="M2480 815 c0 -30 5 -55 10 -55 6 0 10 7 10 15 0 21 37 19 49 -2 5
-10 13 -15 17 -11 4 4 2 13 -4 20 -7 9 -6 18 3 32 23 31 2 56 -45 56 l-40 0 0
-55z m60 35 c25 -14 15 -40 -16 -40 -17 0 -24 6 -24 18 0 31 11 37 40 22z"/>
<path d="M2600 815 l0 -55 40 0 c22 0 40 5 40 10 0 6 -13 10 -30 10 -39 0 -41
27 -2 33 l27 4 -27 2 c-21 1 -28 6 -28 20 0 15 8 21 33 24 28 3 26 4 -10 5
l-43 2 0 -55z"/>
<path d="M2700 815 c0 -30 5 -55 10 -55 6 0 10 17 10 38 l1 37 33 -37 c18 -21
36 -38 40 -38 3 0 6 25 6 55 0 30 -4 55 -10 55 -5 0 -10 -17 -10 -37 l0 -38
-31 38 c-17 20 -35 37 -40 37 -5 0 -9 -25 -9 -55z"/>
<path d="M2830 815 l0 -55 40 0 c22 0 40 5 40 10 0 6 -13 10 -30 10 -39 0 -41
27 -2 33 l27 4 -27 2 c-21 1 -28 6 -28 20 0 15 8 21 33 24 28 3 26 4 -10 5
l-43 2 0 -55z"/>
<path d="M2930 831 c0 -44 20 -71 54 -71 33 0 46 19 46 67 0 56 -18 56 -22 1
-3 -38 -6 -43 -28 -43 -22 0 -25 5 -28 43 -4 53 -22 56 -22 3z"/>
<path d="M3060 816 c0 -31 5 -56 10 -56 6 0 10 7 10 15 0 8 6 15 14 15 7 0 19
-7 26 -15 7 -8 17 -15 22 -15 6 0 6 6 -1 14 -9 11 -9 19 1 35 19 30 0 55 -46
59 l-36 3 0 -55z m59 35 c19 -12 6 -41 -19 -41 -15 0 -20 7 -20 25 0 26 14 31
39 16z"/>
<path d="M3177 863 c-17 -17 -5 -45 23 -54 17 -6 30 -15 30 -20 0 -5 -13 -9
-30 -9 -16 0 -30 -4 -30 -10 0 -11 39 -13 64 -4 28 11 19 44 -14 56 -34 11
-35 34 -1 31 11 -2 21 2 21 7 0 11 -53 14 -63 3z"/>
<path d="M3270 815 c0 -30 5 -55 10 -55 6 0 10 11 10 25 0 21 5 25 30 25 25 0
30 -4 30 -25 0 -14 5 -25 10 -25 6 0 10 25 10 55 0 30 -4 55 -10 55 -5 0 -10
-9 -10 -20 0 -16 -7 -20 -30 -20 -23 0 -30 4 -30 20 0 11 -4 20 -10 20 -5 0
-10 -25 -10 -55z"/>
<path d="M3400 815 c0 -30 5 -55 10 -55 6 0 10 25 10 55 0 30 -4 55 -10 55 -5
0 -10 -25 -10 -55z"/>
<path d="M3450 815 c0 -30 5 -55 10 -55 6 0 10 6 10 13 0 7 15 17 32 22 59 18
45 75 -18 75 l-34 0 0 -55z m59 36 c19 -12 6 -41 -19 -41 -15 0 -20 7 -20 25
0 26 14 31 39 16z"/>
<path d="M1222 818 l3 -43 83 -3 82 -3 0 46 0 45 -86 0 -85 0 3 -42z"/>
<path d="M1830 615 c0 -30 5 -55 10 -55 6 0 10 9 10 20 0 15 7 20 25 20 14 0
25 5 25 10 0 6 -11 10 -25 10 -18 0 -25 5 -25 19 0 15 8 21 33 24 28 3 26 4
-10 5 l-43 2 0 -55z"/>
<path d="M1932 658 c-17 -17 -15 -64 4 -82 19 -19 54 -21 78 -3 21 16 24 60 6
82 -15 18 -71 20 -88 3z m72 -17 c25 -28 5 -63 -32 -59 -30 3 -42 39 -22 64
17 19 34 18 54 -5z"/>
<path d="M2061 630 c-1 -50 11 -70 44 -70 12 0 26 5 33 12 14 14 16 98 2 98
-5 0 -10 -20 -10 -45 0 -41 -2 -45 -25 -45 -25 0 -28 6 -38 70 -3 14 -5 5 -6
-20z"/>
<path d="M2180 615 c0 -30 5 -55 10 -55 6 0 10 17 10 38 l1 37 30 -37 c17 -21
35 -38 40 -38 5 0 9 25 9 55 0 30 -4 55 -10 55 -5 0 -10 -17 -10 -37 l-1 -38
-30 38 c-17 20 -35 37 -40 37 -5 0 -9 -25 -9 -55z"/>
<path d="M2310 615 c0 -54 0 -55 29 -55 43 0 61 10 72 38 15 40 -12 72 -61 72
l-40 0 0 -55z m70 27 c19 -16 21 -22 11 -40 -7 -14 -21 -22 -36 -22 -22 0 -25
4 -25 40 0 45 14 51 50 22z"/>
<path d="M2445 619 c-24 -53 -25 -79 -1 -46 16 21 62 23 70 2 3 -8 10 -15 15
-15 13 0 -33 103 -48 108 -6 2 -22 -20 -36 -49z m49 5 c9 -23 8 -24 -14 -24
-11 0 -20 2 -20 4 0 12 13 36 20 36 4 0 11 -7 14 -16z"/>
<path d="M2548 663 c19 -4 22 -11 22 -54 0 -27 5 -49 10 -49 6 0 10 22 10 49
0 43 3 50 23 54 12 2 -3 4 -33 4 -30 0 -45 -2 -32 -4z"/>
<path d="M2640 615 c0 -30 5 -55 10 -55 6 0 10 25 10 55 0 30 -4 55 -10 55 -5
0 -10 -25 -10 -55z"/>
<path d="M2697 652 c-21 -23 -21 -41 -1 -70 30 -43 104 -18 104 36 0 48 -70
71 -103 34z m67 -5 c29 -21 17 -61 -18 -65 -43 -5 -61 32 -30 62 19 19 25 20
48 3z"/>
<path d="M2820 615 c0 -30 5 -55 10 -55 6 0 10 17 10 38 l1 37 32 -38 c18 -20
35 -37 40 -37 4 0 7 25 7 55 0 30 -4 55 -10 55 -5 0 -10 -17 -10 -37 l0 -38
-31 38 c-17 20 -35 37 -40 37 -5 0 -9 -25 -9 -55z"/>
<path d="M1222 618 l3 -43 83 -3 82 -3 0 46 0 45 -86 0 -85 0 3 -42z"/>
</g>
</svg>
